<svg width="16" height="17" viewBox="0 0 16 17" fill="#ffffff" xmlns="http://www.w3.org/2000/svg">
<path d="M8.00677 6.07858C8.13132 5.96076 8.24325 5.85977 8.35013 5.75289C10.1023 4.0013 11.8542 2.24998 13.6058 0.498949C14.1107 -0.00599552 14.7377 -0.13139 15.2822 0.154745C15.4647 0.250963 15.6226 0.387827 15.7438 0.554773C15.865 0.721719 15.9462 0.914282 15.9812 1.1176C16.0162 1.32092 16.004 1.52955 15.9455 1.7274C15.887 1.92525 15.7839 2.10702 15.6441 2.25868C15.2485 2.69293 14.8202 3.10025 14.4044 3.51262L9.80184 8.10593C9.96343 8.19009 10.1326 8.23049 10.2378 8.33484C12.0152 10.1005 13.7873 11.8714 15.554 13.6477C16.2374 14.3361 16.1145 15.3813 15.32 15.8265C14.7579 16.1413 14.1284 16.0302 13.6074 15.5101C11.9243 13.827 10.2411 12.1438 8.558 10.4607C8.38295 10.2839 8.23988 10.0752 8.06904 9.86482C7.87632 10.0474 7.76439 10.1493 7.65751 10.2553C5.8947 12.0153 4.1316 13.7762 2.36822 15.5379C1.68655 16.2111 0.685076 16.127 0.207062 15.3696C-0.137142 14.8234 -0.0513028 14.1543 0.450275 13.6494C1.77211 12.3197 3.09815 10.9934 4.4284 9.67042C4.97205 9.12676 5.51823 8.58647 6.08714 8.02178C5.96511 7.89049 5.86664 7.77856 5.76061 7.67337C4.00003 5.91111 2.23778 4.14998 0.473839 2.38997C0.0294882 1.94898 -0.115262 1.44067 0.098498 0.862509C0.435127 -0.053123 1.58051 -0.287923 2.30595 0.410583C3.06336 1.1377 3.79469 1.89091 4.53696 2.63234C5.58668 3.68206 6.63584 4.73094 7.68445 5.77898C7.78291 5.87408 7.88558 5.96497 8.00677 6.07858Z"/>
</svg>
