<svg width="7" height="12" viewBox="0 0 7 12" fill="none" xmlns="http://www.w3.org/2000/svg">
<path d="M0.749848 1.24612C0.828158 1.34612 0.894253 1.4574 0.986305 1.54446C2.52779 3.0028 4.07138 4.45922 5.61708 5.91373C5.6474 5.94227 5.68928 5.95972 5.75407 5.99976C5.68601 6.04616 5.6498 6.06443 5.62319 6.09051C4.0817 7.54351 2.53986 8.99685 0.997648 10.4505C0.894907 10.5472 0.795656 10.6437 0.750938 10.7791V10.9022C0.796528 11.071 0.910613 11.1827 1.07705 11.2513H1.29518C1.40425 11.1708 1.52444 11.1004 1.62239 11.0086C3.27177 9.455 4.92065 7.90036 6.56902 6.3447C6.70949 6.21247 6.79653 6.06628 6.72367 5.87841C6.69314 5.80577 6.64669 5.74001 6.58734 5.68541C4.89913 4.09046 3.20953 2.49668 1.51855 0.904056C1.24916 0.650482 0.918466 0.716801 0.76599 1.04983C0.76359 1.05497 0.755301 1.05764 0.749629 1.06154L0.749848 1.24612Z" />
</svg>
