<svg id="Layer_1" data-name="Layer 1" xmlns="http://www.w3.org/2000/svg" viewBox="0 0 275.06 511.39"><defs><style>.cls-1{fill:#fff;}</style></defs><g id="AnyO5T.tif"><path d="M420.24,127.49c-3.59,4.87-6.62,10.29-10.84,14.53q-106,106.54-212.29,212.8c-1.39,1.39-3.31,2.24-6.28,4.19,3.12,2.26,4.78,3.15,6,4.42q106,106.15,212.05,212.35c4.71,4.71,9.26,9.41,11.31,16v6c-2.09,8.22-7.32,13.66-14.95,17h-10c-5-3.92-10.51-7.35-15-11.82Q266.82,489.46,153.47,375.81c-6.44-6.44-10.43-13.56-7.09-22.71a27.07,27.07,0,0,1,6.25-9.4Q268.72,227.18,385,110.83c12.35-12.35,27.51-9.12,34.5,7.1.11.25.49.38.75.57Z" transform="translate(-145.17 -103.32)"/><path class="cls-1" d="M405.29,614.71c7.63-3.32,12.86-8.76,14.95-17v17Z" transform="translate(-145.17 -103.32)"/></g></svg>