<svg width="25" height="25" viewBox="0 0 25 25" fill="none" xmlns="http://www.w3.org/2000/svg">
<path d="M11.2448 1.00003C11.6801 1.07479 12.1177 1.14007 12.5507 1.22654C16.2497 1.9691 19.3252 5.21883 19.8777 8.95058C20.3057 11.8349 19.6031 14.4018 17.7486 16.6529C17.7135 16.6953 17.6794 16.7393 17.6264 16.8057C17.7023 16.8849 17.7754 16.9642 17.8497 17.0406C20.1381 19.3291 22.4263 21.619 24.714 23.9105C24.8468 24.0463 24.9407 24.2153 24.9858 24.3998C25.0388 24.6419 24.8859 24.8254 24.671 24.9337C24.5765 24.9854 24.4682 25.0064 24.3612 24.9938C24.2542 24.9812 24.1538 24.9356 24.0739 24.8634C23.9952 24.7987 23.9254 24.7228 23.8534 24.6508C21.5839 22.3821 19.3144 20.1133 17.0449 17.8445C16.9866 17.7788 16.935 17.7074 16.8909 17.6314C16.2469 18.0576 15.6843 18.4839 15.0738 18.8242C9.67609 21.8368 2.75204 18.8192 1.28933 12.8179C1.17771 12.3615 1.13139 11.889 1.05215 11.4232C1.03706 11.3615 1.01843 11.3008 0.996338 11.2413V9.79411C1.05215 9.45938 1.10349 9.12464 1.16376 8.78991C1.79439 5.1463 4.66513 2.10913 8.27532 1.27675C8.77758 1.16071 9.2899 1.09097 9.79719 0.997803L11.2448 1.00003ZM10.5277 2.2062C5.92805 2.2062 2.20625 5.9162 2.20625 10.506C2.20625 15.1242 5.93642 18.861 10.5461 18.8599C15.1156 18.8599 18.8615 15.1075 18.8642 10.53C18.867 5.93349 15.1396 2.20787 10.5277 2.2062Z" fill="#CED6D9" fill-opacity="0.7"/>
</svg>
